<svg id="Group_24" data-name="Group 24" xmlns="http://www.w3.org/2000/svg" width="53.983" height="53.962" viewBox="0 0 53.983 53.962">
  <path id="Path_4" data-name="Path 4" d="M34.223,1.109A28.159,28.159,0,0,1,47.2,9.048L45.262,25.509,40.42,33.836l-1.549-.968-6.2,10.845,1.937,1.162-1.743,2.9c-.194.581-.194,1.162.387,1.356a.857.857,0,0,0,1.356-.387l1.743-2.9L38.29,47l6.2-10.845-1.549-.968,5.229-8.908L49.716,12.34A26.99,26.99,0,1,1,34.223,1.109ZM6.918,21.636a1.2,1.2,0,1,1-2.324-.581A23.416,23.416,0,0,1,27.058,3.82a1.17,1.17,0,1,1,0,2.324A21.094,21.094,0,0,0,6.918,21.636Zm9.3,2.517a1.2,1.2,0,1,1-2.324-.581A13.83,13.83,0,0,1,27.058,13.5a1.17,1.17,0,1,1,0,2.324A11.388,11.388,0,0,0,16.214,24.153Zm-4.648-1.162a1.2,1.2,0,0,1-2.324-.581A18.428,18.428,0,0,1,27.058,8.661a1.17,1.17,0,1,1,0,2.324A16.33,16.33,0,0,0,11.566,22.991Zm17.816-4.454a8.9,8.9,0,1,1-10.845,6.391A9,9,0,0,1,29.382,18.537Zm-.387,2.13a6.743,6.743,0,1,1-8.327,4.648A6.794,6.794,0,0,1,28.995,20.668Zm-1.162,3.873a2.7,2.7,0,1,1-3.292,1.937A2.655,2.655,0,0,1,27.833,24.541Z" transform="translate(-0.174 -0.174)" fill="#fff" fill-rule="evenodd"/>
</svg>
